# xmcd
# 
# Track frame offsets:
#     150
#     10345
#     21593
#     41307
#     56953
#     77131
#     96565
#     114138
#     124927
#     143242
#     156487
#     176063
# 
# Disc length: 2593
# 
# Revision: 2
# Processed by: cddbd v1.5.2PL0 Copyright (c) Steve Scherf et al.
# Submitted via: fre:ac v1.0.31
# 
DISCID=a80a1f0c
DTITLE=Christmas - Kohls Have Yourself A Merry Little Country Christmas 2011
DYEAR=2011
DGENRE=Christmas
TTITLE0=A Holly Jolly Christmas
TTITLE1=Harrk! The Harold Angels Sing
TTITLE2=Have Yourself a Merry Little Christmas
TTITLE3=Santa Baby
TTITLE4=The First Noel
TTITLE5=O Little Town of Bethlehem
TTITLE6=I'll Be Home For Christmas
TTITLE7=Frosty the Snowman
TTITLE8=O Holy Night
TTITLE9=The Christmas Song
TTITLE10=Joy To The World
TTITLE11=Silent Night
EXTD=
EXTT0=
EXTT1=
EXTT2=
EXTT3=
EXTT4=
EXTT5=
EXTT6=
EXTT7=
EXTT8=
EXTT9=
EXTT10=
EXTT11=
PLAYORDER=
